999
dxflib 2.2.0.0
  0
SECTION
  2
HEADER
  9
$ACADVER
  1
AC1015
  9
$HANDSEED
  5
FFFF
  9
$DIMASZ
 40
2.5
  9
$PLIMMIN
 10
0.0
 20
0.0
  9
$DIMEXE
 40
1.25
  9
$DIMGAP
 40
0.625
  9
$PLIMMAX
 10
210.0
 20
297.0
  9
$EXTMIN
 10
0.0
 20
0.0
 30
0.0
  9
$EXTMAX
 10
0.0
 20
0.0
 30
0.0
  9
$INSUNITS
 70
0
  9
$DIMSTYLE
  2
Standard
  9
$DIMEXO
 40
0.625
  9
$INSBASE
 10
0.0
 20
0.0
 30
0.0
  9
$DIMTXT
 40
2.5
  0
ENDSEC
  0
SECTION
  2
TABLES
  0
TABLE
  2
VPORT
  5
8
100
AcDbSymbolTable
 70
1
  0
VPORT
  5
30
100
AcDbSymbolTableRecord
100
AcDbViewportTableRecord
  2
*Active
 70
0
 10
0.0
 20
0.0
 11
1.0
 21
1.0
 12
286.3055555555554861
 22
148.5
 13
0.0
 23
0.0
 14
10.0
 24
10.0
 15
10.0
 25
10.0
 16
0.0
 26
0.0
 36
1.0
 17
0.0
 27
0.0
 37
0.0
 40
297.0
 41
1.92798353909465
 42
50.0
 43
0.0
 44
0.0
 50
0.0
 51
0.0
 71
0
 72
100
 73
1
 74
3
 75
1
 76
1
 77
0
 78
0
281
0
 65
1
110
0.0
120
0.0
130
0.0
111
1.0
121
0.0
131
0.0
112
0.0
122
1.0
132
0.0
 79
0
146
0.0
  0
ENDTAB
  0
TABLE
  2
LTYPE
  5
5
100
AcDbSymbolTable
 70
21
  0
LTYPE
  5
14
100
AcDbSymbolTableRecord
100
AcDbLinetypeTableRecord
  2
ByBlock
 70
0
  3

 72
65
 73
0
 40
0.0
  0
LTYPE
  5
15
100
AcDbSymbolTableRecord
100
AcDbLinetypeTableRecord
  2
ByLayer
 70
0
  3

 72
65
 73
0
 40
0.0
  0
LTYPE
  5
16
100
AcDbSymbolTableRecord
100
AcDbLinetypeTableRecord
  2
CONTINUOUS
 70
0
  3
Solid line
 72
65
 73
0
 40
0.0
  0
LTYPE
  5
31
100
AcDbSymbolTableRecord
100
AcDbLinetypeTableRecord
  2
DOT
 70
0
  3
Dot . . . . . . . . . . . . . . . . . . . . . .
 72
65
 73
2
 40
6.3499999999999996
 49
0.0
 74
0
 49
-6.3499999999999996
 74
0
  0
LTYPE
  5
32
100
AcDbSymbolTableRecord
100
AcDbLinetypeTableRecord
  2
DOT2
 70
0
  3
Dot (.5x) .....................................
 72
65
 73
2
 40
3.1749999999999998
 49
0.0
 74
0
 49
-3.1749999999999998
 74
0
  0
LTYPE
  5
33
100
AcDbSymbolTableRecord
100
AcDbLinetypeTableRecord
  2
DOTX2
 70
0
  3
Dot (2x) .  .  .  .  .  .  .  .  .  .  .  .  .
 72
65
 73
2
 40
12.6999999999999993
 49
0.0
 74
0
 49
-12.6999999999999993
 74
0
  0
LTYPE
  5
34
100
AcDbSymbolTableRecord
100
AcDbLinetypeTableRecord
  2
DASHED
 70
0
  3
Dashed __ __ __ __ __ __ __ __ __ __ __ __ __ _
 72
65
 73
2
 40
19.0500000000000007
 49
12.6999999999999993
 74
0
 49
-6.3499999999999996
 74
0
  0
LTYPE
  5
35
100
AcDbSymbolTableRecord
100
AcDbLinetypeTableRecord
  2
DASHED2
 70
0
  3
Dashed (.5x) _ _ _ _ _ _ _ _ _ _ _ _ _ _ _ _ _
 72
65
 73
2
 40
9.5250000000000004
 49
6.3499999999999996
 74
0
 49
-3.1749999999999998
 74
0
  0
LTYPE
  5
36
100
AcDbSymbolTableRecord
100
AcDbLinetypeTableRecord
  2
DASHEDX2
 70
0
  3
Dashed (2x) ____  ____  ____  ____  ____  ___
 72
65
 73
2
 40
38.1000000000000014
 49
25.3999999999999986
 74
0
 49
-12.6999999999999993
 74
0
  0
LTYPE
  5
37
100
AcDbSymbolTableRecord
100
AcDbLinetypeTableRecord
  2
DASHDOT
 70
0
  3
Dash dot __ . __ . __ . __ . __ . __ . __ . __
 72
65
 73
4
 40
25.3999999999999986
 49
12.6999999999999993
 74
0
 49
-6.3499999999999996
 74
0
 49
0.0
 74
0
 49
-6.3499999999999996
 74
0
  0
LTYPE
  5
38
100
AcDbSymbolTableRecord
100
AcDbLinetypeTableRecord
  2
DASHDOT2
 70
0
  3
Dash dot (.5x) _._._._._._._._._._._._._._._.
 72
65
 73
4
 40
12.6999999999999993
 49
6.3499999999999996
 74
0
 49
-3.1749999999999998
 74
0
 49
0.0
 74
0
 49
-3.1749999999999998
 74
0
  0
LTYPE
  5
39
100
AcDbSymbolTableRecord
100
AcDbLinetypeTableRecord
  2
DASHDOTX2
 70
0
  3
Dash dot (2x) ____  .  ____  .  ____  .  ___
 72
65
 73
4
 40
50.7999999999999972
 49
25.3999999999999986
 74
0
 49
-12.6999999999999993
 74
0
 49
0.0
 74
0
 49
-12.6999999999999993
 74
0
  0
LTYPE
  5
3A
100
AcDbSymbolTableRecord
100
AcDbLinetypeTableRecord
  2
DIVIDE
 70
0
  3
Divide ____ . . ____ . . ____ . . ____ . . ____
 72
65
 73
6
 40
31.75
 49
12.6999999999999993
 74
0
 49
-6.3499999999999996
 74
0
 49
0.0
 74
0
 49
-6.3499999999999996
 74
0
 49
0.0
 74
0
 49
-6.3499999999999996
 74
0
  0
LTYPE
  5
3B
100
AcDbSymbolTableRecord
100
AcDbLinetypeTableRecord
  2
DIVIDE2
 70
0
  3
Divide (.5x) __..__..__..__..__..__..__..__.._
 72
65
 73
6
 40
15.875
 49
6.3499999999999996
 74
0
 49
-3.1749999999999998
 74
0
 49
0.0
 74
0
 49
-3.1749999999999998
 74
0
 49
0.0
 74
0
 49
-3.1749999999999998
 74
0
  0
LTYPE
  5
3C
100
AcDbSymbolTableRecord
100
AcDbLinetypeTableRecord
  2
DIVIDEX2
 70
0
  3
Divide (2x) ________  .  .  ________  .  .  _
 72
65
 73
6
 40
63.5
 49
25.3999999999999986
 74
0
 49
-12.6999999999999993
 74
0
 49
0.0
 74
0
 49
-12.6999999999999993
 74
0
 49
0.0
 74
0
 49
-12.6999999999999993
 74
0
  0
LTYPE
  5
3D
100
AcDbSymbolTableRecord
100
AcDbLinetypeTableRecord
  2
CENTER
 70
0
  3
Center ____ _ ____ _ ____ _ ____ _ ____ _ ____
 72
65
 73
4
 40
50.7999999999999972
 49
31.75
 74
0
 49
-6.3499999999999996
 74
0
 49
6.3499999999999996
 74
0
 49
-6.3499999999999996
 74
0
  0
LTYPE
  5
3E
100
AcDbSymbolTableRecord
100
AcDbLinetypeTableRecord
  2
CENTER2
 70
0
  3
Center (.5x) ___ _ ___ _ ___ _ ___ _ ___ _ ___
 72
65
 73
4
 40
28.5749999999999993
 49
19.0500000000000007
 74
0
 49
-3.1749999999999998
 74
0
 49
3.1749999999999998
 74
0
 49
-3.1749999999999998
 74
0
  0
LTYPE
  5
3F
100
AcDbSymbolTableRecord
100
AcDbLinetypeTableRecord
  2
CENTERX2
 70
0
  3
Center (2x) ________  __  ________  __  _____
 72
65
 73
4
 40
101.5999999999999943
 49
63.5
 74
0
 49
-12.6999999999999993
 74
0
 49
12.6999999999999993
 74
0
 49
-12.6999999999999993
 74
0
  0
LTYPE
  5
40
100
AcDbSymbolTableRecord
100
AcDbLinetypeTableRecord
  2
BORDER
 70
0
  3
Border __ __ . __ __ . __ __ . __ __ . __ __ .
 72
65
 73
6
 40
44.4500000000000028
 49
12.6999999999999993
 74
0
 49
-6.3499999999999996
 74
0
 49
12.6999999999999993
 74
0
 49
-6.3499999999999996
 74
0
 49
0.0
 74
0
 49
-6.3499999999999996
 74
0
  0
LTYPE
  5
41
100
AcDbSymbolTableRecord
100
AcDbLinetypeTableRecord
  2
BORDER2
 70
0
  3
Border (.5x) __.__.__.__.__.__.__.__.__.__.__.
 72
65
 73
6
 40
22.2250000000000014
 49
6.3499999999999996
 74
0
 49
-3.1749999999999998
 74
0
 49
6.3499999999999996
 74
0
 49
-3.1749999999999998
 74
0
 49
0.0
 74
0
 49
-3.1749999999999998
 74
0
  0
LTYPE
  5
42
100
AcDbSymbolTableRecord
100
AcDbLinetypeTableRecord
  2
BORDERX2
 70
0
  3
Border (2x) ____  ____  .  ____  ____  .  ___
 72
65
 73
6
 40
88.9000000000000057
 49
25.3999999999999986
 74
0
 49
-12.6999999999999993
 74
0
 49
25.3999999999999986
 74
0
 49
-12.6999999999999993
 74
0
 49
0.0
 74
0
 49
-12.6999999999999993
 74
0
  0
ENDTAB
  0
TABLE
  2
LAYER
  5
2
100
AcDbSymbolTable
 70
2
  0
LAYER
  5
10
100
AcDbSymbolTableRecord
100
AcDbLayerTableRecord
  2
0
 70
0
 62
7
  6
CONTINUOUS
390
F
  0
LAYER
  5
43
100
AcDbSymbolTableRecord
100
AcDbLayerTableRecord
  2
noname
 70
0
 62
7
  6
CONTINUOUS
370
20
390
F
  0
ENDTAB
  0
TABLE
  2
STYLE
  5
3
100
AcDbSymbolTable
 70
1
  0
STYLE
  5
11
100
AcDbSymbolTableRecord
100
AcDbTextStyleTableRecord
  2
Standard
 70
0
 40
0.0
 41
0.75
 50
0.0
 71
0
 42
2.5
  3
txt
  4

  0
ENDTAB
  0
TABLE
  2
VIEW
  5
6
100
AcDbSymbolTable
 70
0
  0
ENDTAB
  0
TABLE
  2
UCS
  5
7
100
AcDbSymbolTable
 70
0
  0
ENDTAB
  0
TABLE
  2
APPID
  5
9
100
AcDbSymbolTable
 70
1
  0
APPID
  5
12
100
AcDbSymbolTableRecord
100
AcDbRegAppTableRecord
  2
ACAD
 70
0
  0
ENDTAB
  0
TABLE
  2
DIMSTYLE
  5
A
100
AcDbSymbolTable
 70
1
100
AcDbDimStyleTable
 71
0
  0
DIMSTYLE
105
27
100
AcDbSymbolTableRecord
100
AcDbDimStyleTableRecord
  2
Standard
 41
2.5
 42
0.625
 43
3.75
 44
1.25
 70
0
 73
0
 74
0
 77
1
 78
8
140
2.5
141
2.5
143
0.03937007874016
147
0.625
171
3
172
1
271
2
272
2
274
3
278
44
283
0
284
8
340
11
  0
ENDTAB
  0
TABLE
  2
BLOCK_RECORD
  5
1
100
AcDbSymbolTable
 70
1
  0
BLOCK_RECORD
  5
1F
100
AcDbSymbolTableRecord
100
AcDbBlockTableRecord
  2
*Model_Space
340
22
  0
BLOCK_RECORD
  5
1B
100
AcDbSymbolTableRecord
100
AcDbBlockTableRecord
  2
*Paper_Space
340
1E
  0
BLOCK_RECORD
  5
23
100
AcDbSymbolTableRecord
100
AcDbBlockTableRecord
  2
*Paper_Space0
340
26
  0
BLOCK_RECORD
  5
44
100
AcDbSymbolTableRecord
100
AcDbBlockTableRecord
  2
POCKET018
340
0
  0
ENDTAB
  0
ENDSEC
  0
SECTION
  2
BLOCKS
  0
BLOCK
  5
20
100
AcDbEntity
  8
0
100
AcDbBlockBegin
  2
*Model_Space
 70
0
 10
0.0
 20
0.0
 30
0.0
  3
*Model_Space
  1

  0
ENDBLK
  5
21
100
AcDbEntity
  8
0
100
AcDbBlockEnd
  0
BLOCK
  5
1C
100
AcDbEntity
 67
1
  8
0
100
AcDbBlockBegin
  2
*Paper_Space
 70
0
 10
0.0
 20
0.0
 30
0.0
  3
*Paper_Space
  1

  0
ENDBLK
  5
1D
100
AcDbEntity
 67
1
  8
0
100
AcDbBlockEnd
  0
BLOCK
  5
24
100
AcDbEntity
  8
0
100
AcDbBlockBegin
  2
*Paper_Space0
 70
0
 10
0.0
 20
0.0
 30
0.0
  3
*Paper_Space0
  1

  0
ENDBLK
  5
25
100
AcDbEntity
  8
0
100
AcDbBlockEnd
  0
BLOCK
  5
45
100
AcDbEntity
  8
0
100
AcDbBlockBegin
  2
POCKET018
 70
0
 10
0.0
 20
0.0
 30
0.0
  3
POCKET018
  1

  0
ENDBLK
  5
46
100
AcDbEntity
  8
0
100
AcDbBlockEnd
  0
ENDSEC
  0
SECTION
  2
ENTITIES
  0
INSERT
  5
47
100
AcDbEntity
100
AcDbBlockReference
  8
0
 62
256
370
-1
  6
ByLayer
  2
POCKET018
 10
0.0
 20
0.0
 30
0.0
  0
LINE
  5
48
100
AcDbEntity
100
AcDbLine
  8
noname
 62
256
370
-1
  6
ByLayer
 10
-12.0
 20
44.0000000000000071
 30
0.0
 11
51.0
 21
43.9999999999999858
 31
0.0
  0
LINE
  5
49
100
AcDbEntity
100
AcDbLine
  8
noname
 62
256
370
-1
  6
ByLayer
 10
56.0000000000000213
 20
49.0000000000000924
 30
0.0
 11
55.9999999999999929
 21
50.6895415111999341
 31
0.0
  0
LINE
  5
4A
100
AcDbEntity
100
AcDbLine
  8
noname
 62
256
370
-1
  6
ByLayer
 10
56.0000000000000213
 20
49.0000000000000924
 30
0.0
 11
55.9999999999999929
 21
50.6895415111999341
 31
0.0
  0
LINE
  5
4B
100
AcDbEntity
100
AcDbLine
  8
noname
 62
256
370
-1
  6
ByLayer
 10
55.9999999999999929
 20
50.6895415111999341
 30
0.0
 11
56.0000000000000213
 21
49.0000000000000924
 31
0.0
  0
LINE
  5
4C
100
AcDbEntity
100
AcDbLine
  8
noname
 62
256
370
-1
  6
ByLayer
 10
56.0000000000000213
 20
49.0000000000000924
 30
0.0
 11
55.9999999999999929
 21
50.6895415111999341
 31
0.0
  0
LINE
  5
4D
100
AcDbEntity
100
AcDbLine
  8
noname
 62
256
370
-1
  6
ByLayer
 10
99.5269427087999787
 20
-26.755484549900018
 30
0.0
 11
99.5269427087999645
 21
-35.1007437078000208
 31
0.0
  0
LINE
  5
4E
100
AcDbEntity
100
AcDbLine
  8
noname
 62
256
370
-1
  6
ByLayer
 10
97.0106983830929153
 20
-39.4402088534040729
 30
0.0
 11
78.5612522513763025
 21
-50.0000163365066683
 31
0.0
  0
LINE
  5
4F
100
AcDbEntity
100
AcDbLine
  8
noname
 62
256
370
-1
  6
ByLayer
 10
56.0000000000000071
 20
-49.0000000000001208
 30
0.0
 11
55.9999999999999716
 21
-50.6895365176999348
 31
0.0
  0
LINE
  5
50
100
AcDbEntity
100
AcDbLine
  8
noname
 62
256
370
-1
  6
ByLayer
 10
50.9999999999999858
 20
-44.0
 30
0.0
 11
-12.0000000000000089
 21
-43.9999999999999929
 31
0.0
  0
LINE
  5
51
100
AcDbEntity
100
AcDbLine
  8
noname
 62
256
370
-1
  6
ByLayer
 10
-17.000000000000032
 20
-49.0000000000000639
 30
0.0
 11
-17.0000000000000071
 21
-50.9999999999999289
 31
0.0
  0
LINE
  5
52
100
AcDbEntity
100
AcDbLine
  8
noname
 62
256
370
-1
  6
ByLayer
 10
-22.0000000000000213
 20
-55.9999999999999858
 30
0.0
 11
-30.8724643130000231
 21
-55.9999999999999716
 31
0.0
  0
LINE
  5
53
100
AcDbEntity
100
AcDbLine
  8
noname
 62
256
370
-1
  6
ByLayer
 10
-34.846473391886164
 20
-54.9431442330079136
 30
0.0
 11
-54.4837556742899949
 21
-43.7034615394057155
 31
0.0
  0
LINE
  5
54
100
AcDbEntity
100
AcDbLine
  8
noname
 62
256
370
-1
  6
ByLayer
 10
-57.0000000000000071
 20
-39.3639963937999795
 30
0.0
 11
-57.0
 21
-34.4999999999999858
 31
0.0
  0
LINE
  5
55
100
AcDbEntity
100
AcDbLine
  8
noname
 62
256
370
-1
  6
ByLayer
 10
-57.0000000000000284
 20
34.5000000000000284
 30
0.0
 11
-56.9999999999999574
 21
39.3639963938000221
 31
0.0
  0
LINE
  5
56
100
AcDbEntity
100
AcDbLine
  8
noname
 62
256
370
-1
  6
ByLayer
 10
-54.4837556742900304
 20
43.7034615394056942
 30
0.0
 11
-34.8464733918861498
 21
54.9431442330079207
 31
0.0
  0
LINE
  5
57
100
AcDbEntity
100
AcDbLine
  8
noname
 62
256
370
-1
  6
ByLayer
 10
-17.0000000000000142
 20
49.0000000000000497
 30
0.0
 11
-16.9999999999999964
 21
50.9999999999999574
 31
0.0
  0
ARC
  5
58
100
AcDbEntity
  8
noname
 62
256
370
-1
  6
ByLayer
100
AcDbCircle
 10
-52.0000000000000355
 20
34.4999999999999574
 30
0.0
 40
4.9999999999999929
100
AcDbArc
 50
179.9999999999991758
 51
270.0000000000001137
  0
CIRCLE
  5
59
100
AcDbEntity
100
AcDbCircle
  8
noname
 62
256
370
-1
  6
ByLayer
 10
-23.0000000000000391
 20
45.9999999999999787
 30
0.0
 40
1.5
  0
CIRCLE
  5
5A
100
AcDbEntity
100
AcDbCircle
  8
noname
 62
256
370
-1
  6
ByLayer
 10
-16.4999999999999822
 20
20.0000000000000178
 30
0.0
 40
1.5
  0
CIRCLE
  5
5B
100
AcDbEntity
100
AcDbCircle
  8
noname
 62
256
370
-1
  6
ByLayer
 10
-16.5000000000000036
 20
-19.9999999999999964
 30
0.0
 40
1.5
  0
CIRCLE
  5
5C
100
AcDbEntity
100
AcDbCircle
  8
noname
 62
256
370
-1
  6
ByLayer
 10
-23.0000000000000107
 20
-45.9999999999999929
 30
0.0
 40
1.5
  0
CIRCLE
  5
5D
100
AcDbEntity
100
AcDbCircle
  8
noname
 62
256
370
-1
  6
ByLayer
 10
35.5
 20
-19.9999999999999964
 30
0.0
 40
1.5
  0
CIRCLE
  5
5E
100
AcDbEntity
100
AcDbCircle
  8
noname
 62
256
370
-1
  6
ByLayer
 10
35.5000000000000071
 20
19.9999999999999893
 30
0.0
 40
1.5
  0
CIRCLE
  5
5F
100
AcDbEntity
100
AcDbCircle
  8
noname
 62
256
370
-1
  6
ByLayer
 10
52.0
 20
18.8000000000000078
 30
0.0
 40
1.5
  0
CIRCLE
  5
60
100
AcDbEntity
100
AcDbCircle
  8
noname
 62
256
370
-1
  6
ByLayer
 10
51.9999999999999929
 20
-6.8000000000000327
 30
0.0
 40
1.5
  0
CIRCLE
  5
61
100
AcDbEntity
100
AcDbCircle
  8
noname
 62
256
370
-1
  6
ByLayer
 10
62.0
 20
-46.0
 30
0.0
 40
1.5
  0
CIRCLE
  5
62
100
AcDbEntity
100
AcDbCircle
  8
noname
 62
256
370
-1
  6
ByLayer
 10
83.4999999999999858
 20
-38.0000000000000142
 30
0.0
 40
1.5
  0
CIRCLE
  5
63
100
AcDbEntity
100
AcDbCircle
  8
noname
 62
256
370
-1
  6
ByLayer
 10
83.4999999999999858
 20
-18.0000000000000426
 30
0.0
 40
1.5
  0
CIRCLE
  5
64
100
AcDbEntity
100
AcDbCircle
  8
noname
 62
256
370
-1
  6
ByLayer
 10
83.5
 20
38.0
 30
0.0
 40
1.5
  0
CIRCLE
  5
65
100
AcDbEntity
100
AcDbCircle
  8
noname
 62
256
370
-1
  6
ByLayer
 10
62.0000000000000071
 20
45.9999999999999787
 30
0.0
 40
1.5
  0
CIRCLE
  5
66
100
AcDbEntity
100
AcDbCircle
  8
noname
 62
256
370
-1
  6
ByLayer
 10
83.4999999999999858
 20
18.0000000000000249
 30
0.0
 40
1.5
  0
ARC
  5
67
100
AcDbEntity
  8
noname
 62
256
370
-1
  6
ByLayer
100
AcDbCircle
 10
0.0
 20
0.0
 30
0.0
 40
0.0
100
AcDbArc
 50
0.0
 51
0.0
  0
ARC
  5
68
100
AcDbEntity
  8
noname
 62
256
370
-1
  6
ByLayer
100
AcDbCircle
 10
-52.0000000000000426
 20
39.3639963937999511
 30
0.0
 40
4.9999999999999147
100
AcDbArc
 50
119.7852885819972499
 51
179.9999999999991758
  0
LINE
  5
69
100
AcDbEntity
100
AcDbLine
  8
noname
 62
256
370
-1
  6
ByLayer
 10
-30.8724643130000089
 20
55.9999999999999787
 30
0.0
 11
-22.0000000000000071
 21
55.9999999999999929
 31
0.0
  0
LINE
  5
6A
100
AcDbEntity
100
AcDbLine
  8
noname
 62
256
370
-1
  6
ByLayer
 10
-17.0000000000000142
 20
49.0000000000000497
 30
0.0
 11
-16.9999999999999964
 21
50.9999999999999574
 31
0.0
  0
LINE
  5
6B
100
AcDbEntity
100
AcDbLine
  8
noname
 62
256
370
-1
  6
ByLayer
 10
97.0107019574973322
 20
39.4402095592015129
 30
0.0
 11
78.5613247753473303
 21
49.9999977530374053
 31
0.0
  0
ARC
  5
6C
100
AcDbEntity
  8
noname
 62
256
370
-1
  6
ByLayer
100
AcDbCircle
 10
-52.0000000000000213
 20
-34.4999999999999716
 30
0.0
 40
4.9999999999999787
100
AcDbArc
 50
89.9999999999998437
 51
180.0000000000001421
  0
ARC
  5
6D
100
AcDbEntity
  8
noname
 62
256
370
-1
  6
ByLayer
100
AcDbCircle
 10
-52.0000000001895373
 20
-39.3639963938516573
 30
0.0
 40
4.9999999998104725
100
AcDbArc
 50
179.9999999994078621
 51
240.2147114195934137
  0
ARC
  5
6E
100
AcDbEntity
  8
noname
 62
256
370
-1
  6
ByLayer
100
AcDbCircle
 10
-30.8724643130743672
 20
-48.0000000005534844
 30
0.0
 40
7.9999999994464872
100
AcDbArc
 50
240.2147114164957316
 51
270.0000000005324523
  0
ARC
  5
6F
100
AcDbEntity
  8
noname
 62
256
370
-1
  6
ByLayer
100
AcDbCircle
 10
-22.0000000000000036
 20
-50.9999999999999858
 30
0.0
 40
4.9999999999999964
100
AcDbArc
 50
269.9999999999998295
 51
0.0000000000006616
  0
ARC
  5
70
100
AcDbEntity
  8
noname
 62
256
370
-1
  6
ByLayer
100
AcDbCircle
 10
-30.8724643130629062
 20
48.000000000510461
 30
0.0
 40
7.9999999994895177
100
AcDbArc
 50
89.9999999995495301
 51
119.7852885834223429
  0
ARC
  5
71
100
AcDbEntity
  8
noname
 62
256
370
-1
  6
ByLayer
100
AcDbCircle
 10
-21.9999999999999929
 20
51.0
 30
0.0
 40
4.9999999999999964
100
AcDbArc
 50
359.9999999999994884
 51
90.0000000000001563
  0
ARC
  5
72
100
AcDbEntity
  8
noname
 62
256
370
-1
  6
ByLayer
100
AcDbCircle
 10
94.5269427087916227
 20
35.1007464593984224
 30
0.0
 40
5.0000000000083844
100
AcDbArc
 50
0.0000000000178111
 51
60.214664223866869
  0
ARC
  5
73
100
AcDbEntity
  8
noname
 62
256
370
-1
  6
ByLayer
100
AcDbCircle
 10
94.5269427089815224
 20
-35.1007437078470872
 30
0.0
 40
4.9999999998184457
100
AcDbArc
 50
299.7852885804986158
 51
0.0000000005393203
  0
ARC
  5
74
100
AcDbEntity
  8
noname
 62
256
370
-1
  6
ByLayer
100
AcDbCircle
 10
0.0
 20
0.0
 30
0.0
 40
0.0
100
AcDbArc
 50
0.0
 51
0.0
  0
ARC
  5
75
100
AcDbEntity
  8
noname
 62
256
370
-1
  6
ByLayer
100
AcDbCircle
 10
104.5269427090000107
 20
26.7554845499000038
 30
0.0
 40
5.0000000002000178
100
AcDbArc
 50
179.9999999999998863
 51
240.2147114180410483
  0
ARC
  5
76
100
AcDbEntity
  8
noname
 62
256
370
-1
  6
ByLayer
100
AcDbCircle
 10
0.0
 20
0.0
 30
0.0
 40
0.0
100
AcDbArc
 50
0.0
 51
0.0
  0
ARC
  5
77
100
AcDbEntity
  8
noname
 62
256
370
-1
  6
ByLayer
100
AcDbCircle
 10
104.5269427089999965
 20
-26.7554845499000287
 30
0.0
 40
5.0000000002971658
100
AcDbArc
 50
119.7852885819589943
 51
179.9999999999998863
  0
ARC
  5
78
100
AcDbEntity
  8
noname
 62
256
370
-1
  6
ByLayer
100
AcDbCircle
 10
50.9999999999999858
 20
-49.0000000000000142
 30
0.0
 40
5.0000000000000142
100
AcDbArc
 50
359.9999999999987494
 51
90.0
  0
ARC
  5
79
100
AcDbEntity
  8
noname
 62
256
370
-1
  6
ByLayer
100
AcDbCircle
 10
0.0
 20
0.0
 30
0.0
 40
0.0
100
AcDbArc
 50
0.0
 51
0.0
  0
ARC
  5
7A
100
AcDbEntity
  8
noname
 62
256
370
-1
  6
ByLayer
100
AcDbCircle
 10
0.0
 20
0.0
 30
0.0
 40
0.0
100
AcDbArc
 50
0.0
 51
0.0
  0
ARC
  5
7B
100
AcDbEntity
  8
noname
 62
256
370
-1
  6
ByLayer
100
AcDbCircle
 10
51.0
 20
49.0000000000000071
 30
0.0
 40
5.0000000000000213
100
AcDbArc
 50
270.0
 51
0.0000000000009669
  0
ARC
  5
7C
100
AcDbEntity
  8
noname
 62
256
370
-1
  6
ByLayer
100
AcDbCircle
 10
0.0
 20
0.0
 30
0.0
 40
0.0
100
AcDbArc
 50
0.0
 51
0.0
  0
ARC
  5
7D
100
AcDbEntity
  8
noname
 62
256
370
-1
  6
ByLayer
100
AcDbCircle
 10
-11.9999999999999982
 20
49.0000000000000071
 30
0.0
 40
5.0
100
AcDbArc
 50
179.9999999999994884
 51
270.0
  0
SPLINE
  5
7E
  8
noname
 62
256
370
-1
  6
ByLayer
100
AcDbEntity
100
AcDbSpline
 70
8
 71
3
 72
18
 73
14
 74
0
 40
0.0
 40
0.0
 40
0.0
 40
0.0
 40
0.0909090909090909
 40
0.1818181818181818
 40
0.2727272727272727
 40
0.3636363636363636
 40
0.4545454545454546
 40
0.5454545454545454
 40
0.6363636363636364
 40
0.7272727272727273
 40
0.8181818181818182
 40
0.9090909090909092
 40
1.0
 40
1.0
 40
1.0
 40
1.0
 10
55.9999999999999929
 20
50.6895415111999341
 30
0.0
 10
56.1596435378767183
 20
51.942916682320579
 30
0.0
 10
56.8198584732862955
 20
53.4329730880110176
 30
0.0
 10
57.7538151346335198
 20
54.4924724624356074
 30
0.0
 10
58.9418058526962341
 20
55.2462768394810624
 30
0.0
 10
60.5556358688913221
 20
55.6697564181075535
 30
0.0
 10
62.5491164848118757
 20
55.5253416349594318
 30
0.0
 10
64.2388121931368374
 20
55.2464912526507419
 30
0.0
 10
66.4209471513415224
 20
54.7883172922804107
 30
0.0
 10
68.2655868088138789
 20
54.3124217968090051
 30
0.0
 10
71.936328944277534
 20
53.1123092190129285
 30
0.0
 10
74.6215692046969963
 20
52.0069961847192985
 30
0.0
 10
76.3930091920836958
 20
51.1642352659445265
 30
0.0
 10
78.5613247753473445
 20
49.9999977530374053
 30
0.0
  0
SPLINE
  5
7F
  8
noname
 62
256
370
-1
  6
ByLayer
100
AcDbEntity
100
AcDbSpline
 70
8
 71
3
 72
32
 73
28
 74
0
 40
0.0
 40
0.0
 40
0.0
 40
0.0
 40
0.04
 40
0.08
 40
0.12
 40
0.16
 40
0.2
 40
0.24
 40
0.28
 40
0.32
 40
0.36
 40
0.4
 40
0.44
 40
0.48
 40
0.52
 40
0.5600000000000001
 40
0.6
 40
0.64
 40
0.68
 40
0.72
 40
0.76
 40
0.8
 40
0.84
 40
0.88
 40
0.92
 40
0.96
 40
1.0
 40
1.0
 40
1.0
 40
1.0
 10
55.9999999999999716
 20
-50.6895365176999348
 30
0.0
 10
56.0780738895301454
 20
-51.5696747813128695
 30
0.0
 10
56.3510549915984171
 20
-52.5300012168611872
 30
0.0
 10
56.6391913741325652
 20
-53.1356248498255397
 30
0.0
 10
57.1637741967448036
 20
-53.8963061674315753
 30
0.0
 10
57.8335200176129192
 20
-54.5590848790908254
 30
0.0
 10
58.2886981264253521
 20
-54.8905890227695465
 30
0.0
 10
59.1675385007306716
 20
-55.3416419393017236
 30
0.0
 10
60.0518373932958056
 20
-55.5988121945436191
 30
0.0
 10
61.0980946722789753
 20
-55.68857416861551
 30
0.0
 10
62.1816685833815157
 20
-55.5773483469317355
 30
0.0
 10
63.2054031392446021
 20
-55.4247970554232481
 30
0.0
 10
64.3258523428779796
 20
-55.2303405687611502
 30
0.0
 10
65.5290866000870693
 20
-54.9890991625873866
 30
0.0
 10
66.8322006037950729
 20
-54.6893366604902411
 30
0.0
 10
67.9414502471044699
 20
-54.402032662055106
 30
0.0
 10
68.8619375035144543
 20
-54.1407403335930582
 30
0.0
 10
70.0031666790343934
 20
-53.7873740559150093
 30
0.0
 10
71.0560606629181706
 20
-53.4318283374785494
 30
0.0
 10
72.1406427673754536
 20
-53.0351753535636163
 30
0.0
 10
73.2102410548642553
 20
-52.6129377129804396
 30
0.0
 10
73.9991689469575817
 20
-52.281182061245481
 30
0.0
 10
74.8873043697739007
 20
-51.8864948863824154
 30
0.0
 10
75.5720630409797565
 20
-51.5664564030715482
 30
0.0
 10
76.2571710540191532
 20
-51.2321916656641818
 30
0.0
 10
76.9457824893733715
 20
-50.8816896791249462
 30
0.0
 10
77.4484058093652692
 20
-50.6164411327265142
 30
0.0
 10
78.5612522513763025
 20
-50.0000163365066683
 30
0.0
  0
ARC
  5
80
100
AcDbEntity
  8
noname
 62
256
370
-1
  6
ByLayer
100
AcDbCircle
 10
-12.0000000000000089
 20
-49.0
 30
0.0
 40
5.0000000000000071
100
AcDbArc
 50
90.0
 51
180.000000000000739
  0
CIRCLE
  5
81
100
AcDbEntity
100
AcDbCircle
  8
noname
 62
256
370
-1
  6
ByLayer
 10
-44.0000000000000142
 20
37.9999999999999858
 30
0.0
 40
1.5
  0
CIRCLE
  5
82
100
AcDbEntity
100
AcDbCircle
  8
noname
 62
256
370
-1
  6
ByLayer
 10
-44.0000000000000142
 20
-38.0000000000000142
 30
0.0
 40
1.5
  0
LINE
  5
83
100
AcDbEntity
100
AcDbLine
  8
noname
 62
256
370
-1
  6
ByLayer
 10
35.5
 20
19.9999999999999893
 30
0.0
 11
35.5
 21
19.9999999999999893
 31
0.0
  0
CIRCLE
  5
84
100
AcDbEntity
100
AcDbCircle
  8
noname
 62
256
370
-1
  6
ByLayer
 10
51.9999999999999929
 20
-18.7999999999999972
 30
0.0
 40
1.5
  0
CIRCLE
  5
85
100
AcDbEntity
100
AcDbCircle
  8
noname
 62
256
370
-1
  6
ByLayer
 10
51.9999999999999929
 20
6.8000000000000043
 30
0.0
 40
1.5
  0
CIRCLE
  5
86
100
AcDbEntity
100
AcDbCircle
  8
noname
 62
256
370
-1
  6
ByLayer
 10
98.9000000000000057
 20
-16.0000000000000249
 30
0.0
 40
1.5
  0
CIRCLE
  5
87
100
AcDbEntity
100
AcDbCircle
  8
noname
 62
256
370
-1
  6
ByLayer
 10
98.9000000000000057
 20
16.0
 30
0.0
 40
1.5
  0
ARC
  5
88
100
AcDbEntity
  8
noname
 62
256
370
-1
  6
ByLayer
100
AcDbCircle
 10
75.0
 20
33.0
 30
0.0
 40
2.0
100
AcDbArc
 50
90.0
 51
180.0
  0
ARC
  5
89
100
AcDbEntity
  8
noname
 62
256
370
-1
  6
ByLayer
100
AcDbCircle
 10
90.4000000000000341
 20
11.0
 30
0.0
 40
2.0
100
AcDbArc
 50
90.0
 51
180.0
  0
LINE
  5
8A
100
AcDbEntity
100
AcDbLine
  8
noname
 62
256
370
-1
  6
ByLayer
 10
109.4000000000000057
 20
12.9999999999999609
 30
0.0
 11
90.3000000000000114
 21
13.0
 31
0.0
  0
ARC
  5
8B
100
AcDbEntity
  8
noname
 62
256
370
-1
  6
ByLayer
100
AcDbCircle
 10
75.0
 20
-23.0
 30
0.0
 40
2.0
100
AcDbArc
 50
90.0
 51
180.0
  0
ARC
  5
8C
100
AcDbEntity
  8
noname
 62
256
370
-1
  6
ByLayer
100
AcDbCircle
 10
75.0
 20
23.0
 30
0.0
 40
2.0
100
AcDbArc
 50
180.0
 51
270.0
  0
LINE
  5
8D
100
AcDbEntity
100
AcDbLine
  8
noname
 62
256
370
-1
  6
ByLayer
 10
73.0
 20
33.0
 30
0.0
 11
73.0
 21
23.0
 31
0.0
  0
ARC
  5
8E
100
AcDbEntity
  8
noname
 62
256
370
-1
  6
ByLayer
100
AcDbCircle
 10
90.4000000000000199
 20
-11.0
 30
0.0
 40
2.0
100
AcDbArc
 50
180.0
 51
270.0
  0
LINE
  5
8F
100
AcDbEntity
100
AcDbLine
  8
noname
 62
256
370
-1
  6
ByLayer
 10
90.4000000000000199
 20
-13.0
 30
0.0
 11
109.4000000000000057
 21
-12.9999999999999858
 31
0.0
  0
LINE
  5
90
100
AcDbEntity
100
AcDbLine
  8
noname
 62
256
370
-1
  6
ByLayer
 10
88.4000000000000199
 20
11.0
 30
0.0
 11
88.4000000000000199
 21
-11.0
 31
0.0
  0
LINE
  5
91
100
AcDbEntity
100
AcDbLine
  8
noname
 62
256
370
-1
  6
ByLayer
 10
73.0000000000000142
 20
-23.0000000000000036
 30
0.0
 11
73.0
 21
-33.0
 31
0.0
  0
ARC
  5
92
100
AcDbEntity
  8
noname
 62
256
370
-1
  6
ByLayer
100
AcDbCircle
 10
75.0000000000000142
 20
-33.0
 30
0.0
 40
2.0
100
AcDbArc
 50
180.0
 51
270.0
  0
ARC
  5
93
100
AcDbEntity
  8
noname
 62
256
370
-1
  6
ByLayer
100
AcDbCircle
 10
0.0
 20
0.0
 30
0.0
 40
0.0
100
AcDbArc
 50
0.0
 51
0.0
  0
ARC
  5
94
100
AcDbEntity
  8
noname
 62
256
370
-1
  6
ByLayer
100
AcDbCircle
 10
0.0
 20
0.0
 30
0.0
 40
0.0
100
AcDbArc
 50
0.0
 51
0.0
  0
LINE
  5
95
100
AcDbEntity
100
AcDbLine
  8
noname
 62
256
370
-1
  6
ByLayer
 10
-31.0000000000000036
 20
29.5
 30
0.0
 11
-52.0000000000000213
 21
29.4999999999999609
 31
0.0
  0
ARC
  5
96
100
AcDbEntity
  8
noname
 62
256
370
-1
  6
ByLayer
100
AcDbCircle
 10
-31.0000000000000036
 20
27.5
 30
0.0
 40
2.0
100
AcDbArc
 50
0.0
 51
90.0
  0
LINE
  5
97
100
AcDbEntity
100
AcDbLine
  8
noname
 62
256
370
-1
  6
ByLayer
 10
92.0
 20
35.0
 30
0.0
 11
75.0
 21
35.0
 31
0.0
  0
ARC
  5
98
100
AcDbEntity
  8
noname
 62
256
370
-1
  6
ByLayer
100
AcDbCircle
 10
92.0
 20
33.0
 30
0.0
 40
2.0
100
AcDbArc
 50
0.0
 51
90.0
  0
LINE
  5
99
100
AcDbEntity
100
AcDbLine
  8
noname
 62
256
370
-1
  6
ByLayer
 10
92.0
 20
-21.0
 30
0.0
 11
75.0000000000000142
 21
-21.0000000000000036
 31
0.0
  0
ARC
  5
9A
100
AcDbEntity
  8
noname
 62
256
370
-1
  6
ByLayer
100
AcDbCircle
 10
92.0
 20
-23.0
 30
0.0
 40
2.0
100
AcDbArc
 50
0.0
 51
90.0
  0
LINE
  5
9B
100
AcDbEntity
100
AcDbLine
  8
noname
 62
256
370
-1
  6
ByLayer
 10
-52.0000000000000071
 20
-29.4999999999999929
 30
0.0
 11
-31.0
 21
-29.5000000000000036
 31
0.0
  0
LINE
  5
9C
100
AcDbEntity
100
AcDbLine
  8
noname
 62
256
370
-1
  6
ByLayer
 10
-29.0
 20
-27.5000000000000036
 30
0.0
 11
-29.0000000000000036
 21
27.5
 31
0.0
  0
ARC
  5
9D
100
AcDbEntity
  8
noname
 62
256
370
-1
  6
ByLayer
100
AcDbCircle
 10
-31.0
 20
-27.5
 30
0.0
 40
2.0
100
AcDbArc
 50
270.0
 51
0.0
  0
ARC
  5
9E
100
AcDbEntity
  8
noname
 62
256
370
-1
  6
ByLayer
100
AcDbCircle
 10
92.0
 20
23.0
 30
0.0
 40
2.0
100
AcDbArc
 50
270.0
 51
0.0
  0
LINE
  5
9F
100
AcDbEntity
100
AcDbLine
  8
noname
 62
256
370
-1
  6
ByLayer
 10
75.0
 20
21.0
 30
0.0
 11
92.0000000000000142
 21
21.0
 31
0.0
  0
LINE
  5
A0
100
AcDbEntity
100
AcDbLine
  8
noname
 62
256
370
-1
  6
ByLayer
 10
94.0000000000000142
 20
23.0
 30
0.0
 11
94.0
 21
33.0
 31
0.0
  0
ARC
  5
A1
100
AcDbEntity
  8
noname
 62
256
370
-1
  6
ByLayer
100
AcDbCircle
 10
92.0
 20
-33.0
 30
0.0
 40
2.0
100
AcDbArc
 50
270.0
 51
0.0
  0
LINE
  5
A2
100
AcDbEntity
100
AcDbLine
  8
noname
 62
256
370
-1
  6
ByLayer
 10
75.0
 20
-35.0
 30
0.0
 11
92.0
 21
-35.0
 31
0.0
  0
LINE
  5
A3
100
AcDbEntity
100
AcDbLine
  8
noname
 62
256
370
-1
  6
ByLayer
 10
94.0
 20
-33.0
 30
0.0
 11
94.0
 21
-23.0
 31
0.0
  0
LINE
  5
A4
100
AcDbEntity
100
AcDbLine
  8
noname
 62
256
370
-1
  6
ByLayer
 10
102.0431870345402103
 20
22.4160194039908376
 30
0.0
 11
114.3165785694657757
 21
15.3911539599378244
 31
0.0
  0
ARC
  5
A5
100
AcDbEntity
  8
noname
 62
256
370
-1
  6
ByLayer
100
AcDbCircle
 10
111.9168240991137395
 20
10.9098156503430754
 30
0.0
 40
5.0834254753085641
100
AcDbArc
 50
359.4322446780629434
 51
61.8309723776264946
  0
ARC
  5
A6
100
AcDbEntity
  8
noname
 62
256
370
-1
  6
ByLayer
100
AcDbCircle
 10
111.9168240991137395
 20
-10.9999999999999876
 30
0.0
 40
5.0834254753085641
100
AcDbArc
 50
298.1690276223735054
 51
0.5677553219370359
  0
LINE
  5
A7
100
AcDbEntity
100
AcDbLine
  8
noname
 62
256
370
-1
  6
ByLayer
 10
114.3165785694657757
 20
-15.4813383095947383
 30
0.0
 11
102.0431870345401961
 21
-22.4160194039908696
 31
0.0
  0
LINE
  5
A8
100
AcDbEntity
100
AcDbLine
  8
noname
 62
256
370
-1
  6
ByLayer
 10
117.0
 20
10.8594437964430668
 30
0.0
 11
117.0
 21
-10.9496281460999807
 31
0.0
  0
ARC
  5
A9
100
AcDbEntity
  8
noname
 62
256
370
-1
  6
ByLayer
100
AcDbCircle
 10
109.4000000000000057
 20
10.9999999999999609
 30
0.0
 40
2.0
100
AcDbArc
 50
0.0
 51
90.0
  0
ARC
  5
AA
100
AcDbEntity
  8
noname
 62
256
370
-1
  6
ByLayer
100
AcDbCircle
 10
109.4000000000000057
 20
-11.0000000000000266
 30
0.0
 40
2.0
100
AcDbArc
 50
270.0
 51
0.0
  0
LINE
  5
AB
100
AcDbEntity
100
AcDbLine
  8
noname
 62
256
370
-1
  6
ByLayer
 10
111.4000000000000057
 20
-11.0000000000000266
 30
0.0
 11
111.4000000000000057
 21
10.9999999999999609
 31
0.0
  0
LINE
  5
AC
100
AcDbEntity
100
AcDbLine
  8
noname
 62
256
370
-1
  6
ByLayer
 10
99.5269427088000072
 20
35.1007464593999785
 30
0.0
 11
99.5269427087999929
 21
26.7554845499000145
 31
0.0
  0
ENDSEC
  0
SECTION
  2
OBJECTS
  0
DICTIONARY
  5
C
100
AcDbDictionary
280
0
281
1
  3
ACAD_GROUP
350
D
  3
ACAD_LAYOUT
350
1A
  3
ACAD_MLINESTYLE
350
17
  3
ACAD_PLOTSETTINGS
350
19
  3
ACAD_PLOTSTYLENAME
350
E
  3
AcDbVariableDictionary
350
AD
  0
DICTIONARY
  5
D
100
AcDbDictionary
280
0
281
1
  0
ACDBDICTIONARYWDFLT
  5
E
100
AcDbDictionary
281
1
  3
Normal
350
F
100
AcDbDictionaryWithDefault
340
F
  0
ACDBPLACEHOLDER
  5
F
  0
DICTIONARY
  5
17
100
AcDbDictionary
280
0
281
1
  3
Standard
350
18
  0
MLINESTYLE
  5
18
100
AcDbMlineStyle
  2
STANDARD
 70
0
  3

 62
256
 51
90.0
 52
90.0
 71
2
 49
0.5
 62
256
  6
BYLAYER
 49
-0.5
 62
256
  6
BYLAYER
  0
DICTIONARY
  5
19
100
AcDbDictionary
280
0
281
1
  0
DICTIONARY
  5
1A
100
AcDbDictionary
281
1
  3
Layout1
350
1E
  3
Layout2
350
26
  3
Model
350
22
  0
LAYOUT
  5
1E
100
AcDbPlotSettings
  1

  2
C:\Program Files\AutoCAD 2002\plotters\DWF ePlot (optimized for plotting).pc3
  4

  6

 40
0.0
 41
0.0
 42
0.0
 43
0.0
 44
0.0
 45
0.0
 46
0.0
 47
0.0
 48
0.0
 49
0.0
140
0.0
141
0.0
142
1.0
143
1.0
 70
688
 72
0
 73
0
 74
5
  7

 75
16
147
1.0
148
0.0
149
0.0
100
AcDbLayout
  1
Layout1
 70
1
 71
1
 10
0.0
 20
0.0
 11
420.0
 21
297.0
 12
0.0
 22
0.0
 32
0.0
 14
100000000000000000000.0
 24
100000000000000000000.0
 34
100000000000000000000.0
 15
-100000000000000000000.0
 25
-100000000000000000000.0
 35
-100000000000000000000.0
146
0.0
 13
0.0
 23
0.0
 33
0.0
 16
1.0
 26
0.0
 36
0.0
 17
0.0
 27
1.0
 37
0.0
 76
0
330
1B
  0
LAYOUT
  5
22
100
AcDbPlotSettings
  1

  2
C:\Program Files\AutoCAD 2002\plotters\DWF ePlot (optimized for plotting).pc3
  4

  6

 40
0.0
 41
0.0
 42
0.0
 43
0.0
 44
0.0
 45
0.0
 46
0.0
 47
0.0
 48
0.0
 49
0.0
140
0.0
141
0.0
142
1.0
143
1.0
 70
1712
 72
0
 73
0
 74
0
  7

 75
0
147
1.0
148
0.0
149
0.0
100
AcDbLayout
  1
Model
 70
1
 71
0
 10
0.0
 20
0.0
 11
12.0
 21
9.0
 12
0.0
 22
0.0
 32
0.0
 14
0.0
 24
0.0
 34
0.0
 15
0.0
 25
0.0
 35
0.0
146
0.0
 13
0.0
 23
0.0
 33
0.0
 16
1.0
 26
0.0
 36
0.0
 17
0.0
 27
1.0
 37
0.0
 76
0
330
1F
  0
LAYOUT
  5
26
100
AcDbPlotSettings
  1

  2
C:\Program Files\AutoCAD 2002\plotters\DWF ePlot (optimized for plotting).pc3
  4

  6

 40
0.0
 41
0.0
 42
0.0
 43
0.0
 44
0.0
 45
0.0
 46
0.0
 47
0.0
 48
0.0
 49
0.0
140
0.0
141
0.0
142
1.0
143
1.0
 70
688
 72
0
 73
0
 74
5
  7

 75
16
147
1.0
148
0.0
149
0.0
100
AcDbLayout
  1
Layout2
 70
1
 71
2
 10
0.0
 20
0.0
 11
12.0
 21
9.0
 12
0.0
 22
0.0
 32
0.0
 14
0.0
 24
0.0
 34
0.0
 15
0.0
 25
0.0
 35
0.0
146
0.0
 13
0.0
 23
0.0
 33
0.0
 16
1.0
 26
0.0
 36
0.0
 17
0.0
 27
1.0
 37
0.0
 76
0
330
23
  0
DICTIONARY
  5
AD
100
AcDbDictionary
281
1
  3
DIMASSOC
350
AF
  3
HIDETEXT
350
AE
  0
DICTIONARYVAR
  5
AE
100
DictionaryVariables
280
0
  1
2
  0
DICTIONARYVAR
  5
AF
100
DictionaryVariables
280
0
  1
1
  0
ENDSEC
  0
EOF
